<svg id="visual" viewBox="0 0 960 540" width="960" height="540" xmlns="http://www.w3.org/2000/svg" xmlns:xlink="http://www.w3.org/1999/xlink" version="1.1"><rect x="0" y="0" width="960" height="540" fill="#0066FF"></rect><defs><linearGradient id="grad1_0" x1="43.8%" y1="100%" x2="100%" y2="0%"><stop offset="14.444444444444446%" stop-color="#3fffca" stop-opacity="1"></stop><stop offset="85.55555555555554%" stop-color="#3fffca" stop-opacity="1"></stop></linearGradient></defs><defs><linearGradient id="grad1_1" x1="43.8%" y1="100%" x2="100%" y2="0%"><stop offset="14.444444444444446%" stop-color="#3fffca" stop-opacity="1"></stop><stop offset="85.55555555555554%" stop-color="#00c3ff" stop-opacity="1"></stop></linearGradient></defs><defs><linearGradient id="grad1_2" x1="43.8%" y1="100%" x2="100%" y2="0%"><stop offset="14.444444444444446%" stop-color="#0066ff" stop-opacity="1"></stop><stop offset="85.55555555555554%" stop-color="#00c3ff" stop-opacity="1"></stop></linearGradient></defs><defs><linearGradient id="grad2_0" x1="0%" y1="100%" x2="56.3%" y2="0%"><stop offset="14.444444444444446%" stop-color="#3fffca" stop-opacity="1"></stop><stop offset="85.55555555555554%" stop-color="#3fffca" stop-opacity="1"></stop></linearGradient></defs><defs><linearGradient id="grad2_1" x1="0%" y1="100%" x2="56.3%" y2="0%"><stop offset="14.444444444444446%" stop-color="#00c3ff" stop-opacity="1"></stop><stop offset="85.55555555555554%" stop-color="#3fffca" stop-opacity="1"></stop></linearGradient></defs><defs><linearGradient id="grad2_2" x1="0%" y1="100%" x2="56.3%" y2="0%"><stop offset="14.444444444444446%" stop-color="#00c3ff" stop-opacity="1"></stop><stop offset="85.55555555555554%" stop-color="#0066ff" stop-opacity="1"></stop></linearGradient></defs><g transform="translate(960, 540)"><path d="M-486 0C-480.9 -67.6 -475.8 -135.2 -443.5 -183.7C-411.2 -232.2 -351.7 -261.5 -307.6 -307.6C-263.5 -353.7 -234.7 -416.5 -186 -449C-137.3 -481.5 -68.6 -483.8 0 -486L0 0Z" fill="#009bff"></path><path d="M-324 0C-320.6 -45.1 -317.2 -90.1 -295.6 -122.5C-274.1 -154.8 -234.5 -174.3 -205.1 -205.1C-175.6 -235.8 -156.5 -277.7 -124 -299.3C-91.5 -321 -45.8 -322.5 0 -324L0 0Z" fill="#00e4ed"></path><path d="M-162 0C-160.3 -22.5 -158.6 -45.1 -147.8 -61.2C-137.1 -77.4 -117.2 -87.2 -102.5 -102.5C-87.8 -117.9 -78.2 -138.8 -62 -149.7C-45.8 -160.5 -22.9 -161.3 0 -162L0 0Z" fill="#3fffca"></path></g><g transform="translate(0, 0)"><path d="M486 0C440.1 52.6 394.1 105.2 361.2 149.6C328.4 194.1 308.5 230.4 285 285C261.4 339.6 234.1 412.4 186 449C137.9 485.6 68.9 485.8 0 486L0 0Z" fill="#009bff"></path><path d="M324 0C293.4 35.1 262.7 70.1 240.8 99.8C218.9 129.4 205.7 153.6 190 190C174.3 226.4 156.1 275 124 299.3C91.9 323.7 46 323.9 0 324L0 0Z" fill="#00e4ed"></path><path d="M162 0C146.7 17.5 131.4 35.1 120.4 49.9C109.5 64.7 102.8 76.8 95 95C87.1 113.2 78 137.5 62 149.7C46 161.9 23 161.9 0 162L0 0Z" fill="#3fffca"></path></g></svg>