<svg id="visual" viewBox="0 0 960 540" width="960" height="540" xmlns="http://www.w3.org/2000/svg" xmlns:xlink="http://www.w3.org/1999/xlink" version="1.1"><rect x="0" y="0" width="960" height="540" fill="#3621c0"></rect><defs><linearGradient id="grad1_0" x1="43.8%" y1="100%" x2="100%" y2="0%"><stop offset="14.444444444444446%" stop-color="#e500ff" stop-opacity="1"></stop><stop offset="85.55555555555554%" stop-color="#e500ff" stop-opacity="1"></stop></linearGradient></defs><defs><linearGradient id="grad1_1" x1="43.8%" y1="100%" x2="100%" y2="0%"><stop offset="14.444444444444446%" stop-color="#e500ff" stop-opacity="1"></stop><stop offset="85.55555555555554%" stop-color="#931ee3" stop-opacity="1"></stop></linearGradient></defs><defs><linearGradient id="grad1_2" x1="43.8%" y1="100%" x2="100%" y2="0%"><stop offset="14.444444444444446%" stop-color="#3621c0" stop-opacity="1"></stop><stop offset="85.55555555555554%" stop-color="#931ee3" stop-opacity="1"></stop></linearGradient></defs><defs><linearGradient id="grad2_0" x1="0%" y1="100%" x2="56.3%" y2="0%"><stop offset="14.444444444444446%" stop-color="#e500ff" stop-opacity="1"></stop><stop offset="85.55555555555554%" stop-color="#e500ff" stop-opacity="1"></stop></linearGradient></defs><defs><linearGradient id="grad2_1" x1="0%" y1="100%" x2="56.3%" y2="0%"><stop offset="14.444444444444446%" stop-color="#931ee3" stop-opacity="1"></stop><stop offset="85.55555555555554%" stop-color="#e500ff" stop-opacity="1"></stop></linearGradient></defs><defs><linearGradient id="grad2_2" x1="0%" y1="100%" x2="56.3%" y2="0%"><stop offset="14.444444444444446%" stop-color="#931ee3" stop-opacity="1"></stop><stop offset="85.55555555555554%" stop-color="#3621c0" stop-opacity="1"></stop></linearGradient></defs><g transform="translate(960, 540)"><path d="M-486 0C-430.5 -41.4 -375 -82.7 -361.2 -149.6C-347.5 -216.5 -375.4 -308.9 -343.7 -343.7C-311.9 -378.4 -220.3 -355.4 -153.1 -369.6C-85.8 -383.7 -42.9 -434.8 0 -486L0 0Z" fill="#6821d2"></path><path d="M-324 0C-287 -27.6 -250 -55.2 -240.8 -99.8C-231.6 -144.3 -250.3 -205.9 -229.1 -229.1C-207.9 -252.3 -146.9 -237 -102 -246.4C-57.2 -255.8 -28.6 -289.9 0 -324L0 0Z" fill="#bc16f2"></path><path d="M-162 0C-143.5 -13.8 -125 -27.6 -120.4 -49.9C-115.8 -72.2 -125.1 -103 -114.6 -114.6C-104 -126.1 -73.4 -118.5 -51 -123.2C-28.6 -127.9 -14.3 -144.9 0 -162L0 0Z" fill="#e500ff"></path></g><g transform="translate(0, 0)"><path d="M486 0C478.5 62.1 471.1 124.3 449 186C426.9 247.7 390.3 308.9 338 338C285.7 367.1 217.8 364.1 158.8 383.4C99.9 402.7 49.9 444.4 0 486L0 0Z" fill="#6821d2"></path><path d="M324 0C319 41.4 314 82.9 299.3 124C284.6 165.1 260.2 205.9 225.3 225.3C190.5 244.7 145.2 242.7 105.9 255.6C66.6 268.5 33.3 296.2 0 324L0 0Z" fill="#bc16f2"></path><path d="M162 0C159.5 20.7 157 41.4 149.7 62C142.3 82.6 130.1 103 112.7 112.7C95.2 122.4 72.6 121.4 52.9 127.8C33.3 134.2 16.6 148.1 0 162L0 0Z" fill="#e500ff"></path></g></svg>