<svg id="visual" viewBox="0 0 960 540" width="960" height="540" xmlns="http://www.w3.org/2000/svg" xmlns:xlink="http://www.w3.org/1999/xlink" version="1.1"><rect x="0" y="0" width="960" height="540" fill="#FF0066"></rect><defs><linearGradient id="grad1_0" x1="43.8%" y1="100%" x2="100%" y2="0%"><stop offset="14.444444444444446%" stop-color="#ffa722" stop-opacity="1"></stop><stop offset="85.55555555555554%" stop-color="#ffa722" stop-opacity="1"></stop></linearGradient></defs><defs><linearGradient id="grad1_1" x1="43.8%" y1="100%" x2="100%" y2="0%"><stop offset="14.444444444444446%" stop-color="#ffa722" stop-opacity="1"></stop><stop offset="85.55555555555554%" stop-color="#ff683d" stop-opacity="1"></stop></linearGradient></defs><defs><linearGradient id="grad1_2" x1="43.8%" y1="100%" x2="100%" y2="0%"><stop offset="14.444444444444446%" stop-color="#ff0066" stop-opacity="1"></stop><stop offset="85.55555555555554%" stop-color="#ff683d" stop-opacity="1"></stop></linearGradient></defs><defs><linearGradient id="grad2_0" x1="0%" y1="100%" x2="56.3%" y2="0%"><stop offset="14.444444444444446%" stop-color="#ffa722" stop-opacity="1"></stop><stop offset="85.55555555555554%" stop-color="#ffa722" stop-opacity="1"></stop></linearGradient></defs><defs><linearGradient id="grad2_1" x1="0%" y1="100%" x2="56.3%" y2="0%"><stop offset="14.444444444444446%" stop-color="#ff683d" stop-opacity="1"></stop><stop offset="85.55555555555554%" stop-color="#ffa722" stop-opacity="1"></stop></linearGradient></defs><defs><linearGradient id="grad2_2" x1="0%" y1="100%" x2="56.3%" y2="0%"><stop offset="14.444444444444446%" stop-color="#ff683d" stop-opacity="1"></stop><stop offset="85.55555555555554%" stop-color="#ff0066" stop-opacity="1"></stop></linearGradient></defs><g transform="translate(960, 540)"><path d="M-486 0C-448.8 -51.5 -411.6 -103 -392.6 -162.6C-373.7 -222.3 -372.9 -290.2 -341.5 -341.5C-310.1 -392.9 -248 -427.7 -186 -449C-123.9 -470.3 -62 -478.2 0 -486L0 0Z" fill="#ff4250"></path><path d="M-324 0C-299.2 -34.3 -274.4 -68.6 -261.8 -108.4C-249.1 -148.2 -248.6 -193.5 -227.7 -227.7C-206.7 -261.9 -165.3 -285.1 -124 -299.3C-82.6 -313.6 -41.3 -318.8 0 -324L0 0Z" fill="#ff892c"></path><path d="M-162 0C-149.6 -17.2 -137.2 -34.3 -130.9 -54.2C-124.6 -74.1 -124.3 -96.7 -113.8 -113.8C-103.4 -131 -82.7 -142.6 -62 -149.7C-41.3 -156.8 -20.7 -159.4 0 -162L0 0Z" fill="#ffa722"></path></g><g transform="translate(0, 0)"><path d="M486 0C450.2 51.3 414.4 102.6 396.3 164.2C378.3 225.7 378 297.5 343.7 343.7C309.3 389.8 240.9 410.2 177.9 429.6C115 449 57.5 467.5 0 486L0 0Z" fill="#ff4250"></path><path d="M324 0C300.1 34.2 276.3 68.4 264.2 109.4C252.2 150.5 252 198.4 229.1 229.1C206.2 259.8 160.6 273.4 118.6 286.4C76.7 299.4 38.3 311.7 0 324L0 0Z" fill="#ff892c"></path><path d="M162 0C150.1 17.1 138.1 34.2 132.1 54.7C126.1 75.2 126 99.2 114.6 114.6C103.1 129.9 80.3 136.7 59.3 143.2C38.3 149.7 19.2 155.8 0 162L0 0Z" fill="#ffa722"></path></g></svg>