<svg id="visual" viewBox="0 0 960 540" width="960" height="540" xmlns="http://www.w3.org/2000/svg" xmlns:xlink="http://www.w3.org/1999/xlink" version="1.1"><rect x="0" y="0" width="960" height="540" fill="#009473"></rect><defs><linearGradient id="grad1_0" x1="43.8%" y1="0%" x2="100%" y2="100%"><stop offset="14.444444444444446%" stop-color="#ffe522" stop-opacity="1"></stop><stop offset="85.55555555555554%" stop-color="#ffe522" stop-opacity="1"></stop></linearGradient></defs><defs><linearGradient id="grad1_1" x1="43.8%" y1="0%" x2="100%" y2="100%"><stop offset="14.444444444444446%" stop-color="#ffe522" stop-opacity="1"></stop><stop offset="85.55555555555554%" stop-color="#79c456" stop-opacity="1"></stop></linearGradient></defs><defs><linearGradient id="grad1_2" x1="43.8%" y1="0%" x2="100%" y2="100%"><stop offset="14.444444444444446%" stop-color="#009473" stop-opacity="1"></stop><stop offset="85.55555555555554%" stop-color="#79c456" stop-opacity="1"></stop></linearGradient></defs><defs><linearGradient id="grad2_0" x1="0%" y1="0%" x2="56.3%" y2="100%"><stop offset="14.444444444444446%" stop-color="#ffe522" stop-opacity="1"></stop><stop offset="85.55555555555554%" stop-color="#ffe522" stop-opacity="1"></stop></linearGradient></defs><defs><linearGradient id="grad2_1" x1="0%" y1="0%" x2="56.3%" y2="100%"><stop offset="14.444444444444446%" stop-color="#79c456" stop-opacity="1"></stop><stop offset="85.55555555555554%" stop-color="#ffe522" stop-opacity="1"></stop></linearGradient></defs><defs><linearGradient id="grad2_2" x1="0%" y1="0%" x2="56.3%" y2="100%"><stop offset="14.444444444444446%" stop-color="#79c456" stop-opacity="1"></stop><stop offset="85.55555555555554%" stop-color="#009473" stop-opacity="1"></stop></linearGradient></defs><g transform="translate(960, 0)"><path d="M0 486C-61.3 464.8 -122.7 443.5 -170.7 412.1C-218.7 380.6 -253.3 338.9 -302.6 302.6C-352 266.4 -416 235.5 -449 186C-482 136.4 -484 68.2 -486 0L0 0Z" fill="#41ad69"></path><path d="M0 324C-40.9 309.8 -81.8 295.7 -113.8 274.7C-145.8 253.7 -168.9 225.9 -201.8 201.8C-234.6 177.6 -277.3 157 -299.3 124C-321.3 91 -322.7 45.5 -324 0L0 0Z" fill="#b8d83c"></path><path d="M0 162C-20.4 154.9 -40.9 147.8 -56.9 137.4C-72.9 126.9 -84.4 113 -100.9 100.9C-117.3 88.8 -138.7 78.5 -149.7 62C-160.7 45.5 -161.3 22.7 -162 0L0 0Z" fill="#ffe522"></path></g><g transform="translate(0, 540)"><path d="M0 -486C51.8 -453.3 103.7 -420.6 166.8 -402.8C230 -385 304.5 -382.2 343.7 -343.7C382.9 -305.1 386.8 -230.8 404.7 -167.6C422.5 -104.4 454.3 -52.2 486 0L0 0Z" fill="#41ad69"></path><path d="M0 -324C34.6 -302.2 69.1 -280.4 111.2 -268.5C153.3 -256.7 203 -254.8 229.1 -229.1C255.2 -203.4 257.9 -153.9 269.8 -111.7C281.7 -69.6 302.8 -34.8 324 0L0 0Z" fill="#b8d83c"></path><path d="M0 -162C17.3 -151.1 34.6 -140.2 55.6 -134.3C76.7 -128.3 101.5 -127.4 114.6 -114.6C127.6 -101.7 128.9 -76.9 134.9 -55.9C140.8 -34.8 151.4 -17.4 162 0L0 0Z" fill="#ffe522"></path></g></svg>