<svg id="visual" viewBox="0 0 960 540" width="960" height="540" xmlns="http://www.w3.org/2000/svg" xmlns:xlink="http://www.w3.org/1999/xlink" version="1.1"><rect x="0" y="0" width="960" height="540" fill="#FCAF3C"></rect><defs><linearGradient id="grad1_0" x1="43.8%" y1="0%" x2="100%" y2="100%"><stop offset="14.444444444444446%" stop-color="#c62368" stop-opacity="1"></stop><stop offset="85.55555555555554%" stop-color="#c62368" stop-opacity="1"></stop></linearGradient></defs><defs><linearGradient id="grad1_1" x1="43.8%" y1="0%" x2="100%" y2="100%"><stop offset="14.444444444444446%" stop-color="#c62368" stop-opacity="1"></stop><stop offset="85.55555555555554%" stop-color="#f3664c" stop-opacity="1"></stop></linearGradient></defs><defs><linearGradient id="grad1_2" x1="43.8%" y1="0%" x2="100%" y2="100%"><stop offset="14.444444444444446%" stop-color="#fcaf3c" stop-opacity="1"></stop><stop offset="85.55555555555554%" stop-color="#f3664c" stop-opacity="1"></stop></linearGradient></defs><defs><linearGradient id="grad2_0" x1="0%" y1="0%" x2="56.3%" y2="100%"><stop offset="14.444444444444446%" stop-color="#c62368" stop-opacity="1"></stop><stop offset="85.55555555555554%" stop-color="#c62368" stop-opacity="1"></stop></linearGradient></defs><defs><linearGradient id="grad2_1" x1="0%" y1="0%" x2="56.3%" y2="100%"><stop offset="14.444444444444446%" stop-color="#f3664c" stop-opacity="1"></stop><stop offset="85.55555555555554%" stop-color="#c62368" stop-opacity="1"></stop></linearGradient></defs><defs><linearGradient id="grad2_2" x1="0%" y1="0%" x2="56.3%" y2="100%"><stop offset="14.444444444444446%" stop-color="#f3664c" stop-opacity="1"></stop><stop offset="85.55555555555554%" stop-color="#fcaf3c" stop-opacity="1"></stop></linearGradient></defs><g transform="translate(960, 0)"><path d="M0 486C-64.5 481 -129 476.1 -186 449C-242.9 421.9 -292.4 372.7 -319.6 319.6C-346.9 266.5 -352 209.7 -376 155.8C-400.1 101.8 -443 50.9 -486 0L0 0Z" fill="#fc8a40"></path><path d="M0 324C-43 320.7 -86 317.4 -124 299.3C-162 281.3 -194.9 248.5 -213.1 213.1C-231.2 177.7 -234.7 139.8 -250.7 103.8C-266.7 67.9 -295.4 33.9 -324 0L0 0Z" fill="#e1435a"></path><path d="M0 162C-21.5 160.3 -43 158.7 -62 149.7C-81 140.6 -97.5 124.2 -106.5 106.5C-115.6 88.8 -117.3 69.9 -125.3 51.9C-133.4 33.9 -147.7 17 -162 0L0 0Z" fill="#c62368"></path></g><g transform="translate(0, 540)"><path d="M0 -486C65 -473.7 130.1 -461.3 177.6 -428.7C225.1 -396 255 -343.1 302.6 -302.6C350.3 -262.2 415.5 -234.3 449 -186C482.5 -137.6 484.3 -68.8 486 0L0 0Z" fill="#fc8a40"></path><path d="M0 -324C43.4 -315.8 86.7 -307.6 118.4 -285.8C150 -264 170 -228.7 201.8 -201.8C233.5 -174.8 277 -156.2 299.3 -124C321.7 -91.8 322.8 -45.9 324 0L0 0Z" fill="#e1435a"></path><path d="M0 -162C21.7 -157.9 43.4 -153.8 59.2 -142.9C75 -132 85 -114.4 100.9 -100.9C116.8 -87.4 138.5 -78.1 149.7 -62C160.8 -45.9 161.4 -22.9 162 0L0 0Z" fill="#c62368"></path></g></svg>